<svg xmlns="http://www.w3.org/2000/svg" viewBox="0 0 62.44 176"><defs><style>.cls-1{fill:#e0b272;}</style></defs><g id="Calque_2" data-name="Calque 2"><g id="Calque_1-2" data-name="Calque 1"><g id="barber_pole" data-name="barber pole"><path class="cls-1" d="M56.26,60.26a3.53,3.53,0,0,1-.85,2.24Q31.32,86.77,7.16,110.94c-.23.23-.49.44-1,.91,0-7.47,0-14.53,0-21.58a2.31,2.31,0,0,1,.61-1.48q24.42-24.56,48.87-49a2.59,2.59,0,0,1,.56-.34c0,.55.08,1,.08,1.4C56.3,47.3,56.32,53.78,56.26,60.26Z"/><path class="cls-1" d="M56.26,92.25a2.56,2.56,0,0,1-.74,1.61q-21.78,21.9-43.63,43.75a3.37,3.37,0,0,1-1.93.79c-1.18.12-2.38,0-3.71,0,0-.59-.1-1.09-.1-1.58,0-4.87,0-9.75,0-14.61A3.57,3.57,0,0,1,7.06,120q24-24.2,48.09-48.29c.27-.27.56-.51,1.14-1C56.29,78.16,56.31,85.2,56.26,92.25Z"/><path class="cls-1" d="M48.25,37.8l-42,42.13a2.93,2.93,0,0,1-.1-.61c0-5.73,0-11.46,0-17.19a2.76,2.76,0,0,1,.73-1.77Q17.71,49.43,28.59,38.6a2.6,2.6,0,0,1,1.59-.77C36.17,37.77,42.17,37.8,48.25,37.8Z"/><path class="cls-1" d="M55.87,18.8H20.53c2.47-4.06,6-5.89,10.57-6.25V6.3C23.45,6.75,17.75,10.12,14.39,17c-.71,1.46-1.48,2-3.07,1.9s-3.16,0-4.89,0A20.33,20.33,0,0,1,11.66,7.53,21.67,21.67,0,0,1,29,0a82.67,82.67,0,0,1,9.06.37c8.49,1.12,16.4,8.91,17.82,17.31A6.83,6.83,0,0,1,55.87,18.8Z"/><path class="cls-1" d="M56.24,157.33A47.67,47.67,0,0,1,54.42,163c-3.13,6.76-8.34,11.17-15.63,12.66-2.74.56-5.69.22-8.54.18-2.5,0-5.12.24-7.48-.4-8.61-2.33-14-8-16.16-16.71a9.26,9.26,0,0,1-.12-1.36H41.92c-2.46,4.06-6,5.92-10.56,6.27v6.08c6.54.44,13.86-4.07,16.66-10.47.7-1.59,1.54-2.14,3.2-2S54.28,157.33,56.24,157.33Z"/><path class="cls-1" d="M56.25,120.17a3.52,3.52,0,0,1-1,2.2c-5,5.08-10,10.1-15,15.11a2.92,2.92,0,0,1-1.71.91c-5.89.06-11.78,0-17.66,0a.53.53,0,0,1-.27-.08l35.54-35.66a6.56,6.56,0,0,1,.11,1C56.3,109.16,56.33,114.67,56.25,120.17Z"/><rect class="cls-1" x="0.01" y="25.28" width="62.41" height="6.09"/><rect class="cls-1" y="144.89" width="62.44" height="6.1"/><path class="cls-1" d="M19.81,37.89,6.31,51.41V37.89Z"/><path class="cls-1" d="M56.2,131v7.34H48.9Z"/></g></g></g></svg>