<svg xmlns="http://www.w3.org/2000/svg" viewBox="0 0 118.35 121"><defs><style>.cls-1{fill:#e0b272;}.cls-2{fill:#fff;}</style></defs><g id="Calque_2" data-name="Calque 2"><g id="Calque_8" data-name="Calque 8"><path class="cls-1" d="M58.72,7V8.59a9.5,9.5,0,0,0-6.92,4.69l-1.18,2H72.17L74,17H46.23l1.86-1.85a3.26,3.26,0,0,0,1.81-1.81h0l.13-.24A10.74,10.74,0,0,1,55.13,8a13,13,0,0,1,3.59-1M60,5.54a14.89,14.89,0,0,0-5.42,1.29,12.07,12.07,0,0,0-5.7,5.7c0,.08-.09.15-.13.22A1.89,1.89,0,0,1,47.41,14l-4.3,4.3h34L72.7,14H52.9A8.47,8.47,0,0,1,60,9.74V5.54Z" transform="translate(-0.91)"/><polygon class="cls-1" points="59.21 119.64 59.14 119.64 59.18 119.67 59.21 119.64 59.21 119.64"/><path class="cls-1" d="M80.63,23.69,117.44,60.5l-37,37H39.73l-37-37L39.55,23.69H80.63M42,55.28l.36,2.54L44.2,56,54.6,45.54,72.46,27.63l2.19-2.2h-9.2c-2,0-4.05,0-6.06,0a3,3,0,0,0-2,.9C52.07,31.67,47.29,36.46,42.8,41A3.17,3.17,0,0,0,42,43.08c0,2.9,0,5.84,0,8.69v2.89a2.84,2.84,0,0,0,.08.62M42,39l2.2-2.19C46,35,47.87,33.17,49.69,31.34l3.64-3.64,2.2-2.21H42V39m-.1,40.42,2.15-1.9.26-.23c.21-.19.35-.3.48-.43C55.13,66.51,66.2,55.41,77.28,44.26a3.6,3.6,0,0,0,.94-2.41c0-3.84,0-7.73,0-11.5v-1.6c0-.22,0-.44,0-.68l0-.34-.11-2.14L76.24,26.7l-.14.08a1.91,1.91,0,0,0-.5.35c-10.78,10.81-21.92,22-32.84,33A2.8,2.8,0,0,0,41.94,62c0,3.56,0,7.12,0,10.8v6.58m.17,16.31h1.19l.77,0h.76c.42,0,.77,0,1.12,0A3.71,3.71,0,0,0,48,94.8c11-11,20.6-20.63,29.37-29.46a3.11,3.11,0,0,0,.86-2c0-3.8,0-7.55,0-11.53V46l-2.14,1.86-.3.27c-.23.19-.39.33-.53.47C65,58.92,54,70,42.91,81.13a3.66,3.66,0,0,0-1,2.38c0,2.88,0,5.79,0,8.6v1.25a8.11,8.11,0,0,0,0,.86l0,.31.09,1.19m17,0q3,0,5.94,0a3.19,3.19,0,0,0,2.06-1c2.81-2.79,6.5-6.47,10.13-10.18a3.67,3.67,0,0,0,1-2.37c0-3.26,0-6.57,0-9.77V71a4.21,4.21,0,0,0-.07-.74v-.05l-.27-2.71L76,69.46,52.4,93.11l-.34.34-1.21,1.23,1.51.82a1.69,1.69,0,0,0,.79.21h5.94m9.79-.07h9.31V86.29L76,88.51,73.54,91l-2.47,2.48-2.19,2.2m12.2-73.33v.08h-42v-.08L.91,60.5,39.19,98.78H81L119.26,60.5,81.08,22.32ZM43.28,55.07a2.28,2.28,0,0,1-.06-.41c0-3.86,0-7.71,0-11.57a1.89,1.89,0,0,1,.49-1.19Q51,34.55,58.32,27.26a1.72,1.72,0,0,1,1.07-.52c2,0,4,0,6.06,0h6.09L43.28,55.07Zm0-19.19v-9.1h9.09c-3,3-6.08,6.1-9.09,9.1Zm-.1,40.66c0-5,0-9.77,0-14.51a1.54,1.54,0,0,1,.42-1Q60.06,44.52,76.52,28a2.54,2.54,0,0,1,.38-.23c0,.37,0,.66,0,.95,0,4.36,0,8.72,0,13.08a2.33,2.33,0,0,1-.57,1.51Q60.16,59.66,43.9,75.93c-.16.16-.33.3-.68.61Zm1.6,17.91-1.53,0c0-.4-.07-.73-.07-1.07,0-3.27,0-6.55,0-9.83a2.4,2.4,0,0,1,.59-1.5Q60,65.76,76.19,49.54c.18-.18.38-.34.77-.68,0,5,0,9.76,0,14.5a1.83,1.83,0,0,1-.5,1.08Q61.79,79.19,47.08,93.88a2.29,2.29,0,0,1-1.29.53,7.79,7.79,0,0,1-1,0Zm14.27,0H53.15a.41.41,0,0,1-.18-.06l23.91-24A4.88,4.88,0,0,1,77,71c0,3.71,0,7.41,0,11.11a2.4,2.4,0,0,1-.64,1.49q-5,5.12-10.11,10.16A2,2,0,0,1,65,94.4q-3,0-5.94,0ZM72,94.36l4.92-4.94v4.94Z" transform="translate(-0.91)"/><path class="cls-1" d="M73.76,104.18l-1.92,1.92a3.24,3.24,0,0,0-1.53,1.62l0,.07v0l0,.05h0l0,0v0a11.08,11.08,0,0,1-5.47,5.37,10.05,10.05,0,0,1-3.27.89v-1.65a9.52,9.52,0,0,0,6.93-4.7l1.18-2H48.14l-1.72-1.71H73.76m3.11-1.29H43.3l4.3,4.3H67.29a8.44,8.44,0,0,1-7.11,4.22v4.1h.58a11,11,0,0,0,4.51-1,12.31,12.31,0,0,0,6.12-6,1.3,1.3,0,0,0,.08-.17,1.88,1.88,0,0,1,1.09-1.09l4.31-4.31Z" transform="translate(-0.91)"/><path class="cls-1" d="M76.9,27.81c0,.36.06.65.06.94,0,4.36,0,8.72,0,13.08a2.4,2.4,0,0,1-.58,1.51Q60.16,59.68,43.9,75.94c-.15.15-.33.29-.68.6,0-5,0-9.77,0-14.51a1.55,1.55,0,0,1,.41-1Q60.08,44.52,76.52,28a2.41,2.41,0,0,1,.38-.22m1.17-2.19-1.82,1.07-.13.08a1.77,1.77,0,0,0-.53.37C65.06,37.69,53.78,49,42.73,60.12A2.87,2.87,0,0,0,42,62c0,3.84,0,7.64,0,11.67v5.72l2.15-1.91.31-.28c.18-.16.31-.26.42-.38L48.64,73C58,63.59,67.75,53.86,77.28,44.25a3.6,3.6,0,0,0,1-2.4c0-3.71,0-7.47,0-11.11v-2c0-.22,0-.44,0-.69l0-.33-.12-2.11Z" transform="translate(-0.91)"/><path class="cls-1" d="M77,48.86c0,5,0,9.76,0,14.5a1.72,1.72,0,0,1-.5,1.08Q61.79,79.19,47.08,93.88a2.23,2.23,0,0,1-1.29.53c-.32,0-.64,0-1,0l-1.53,0c0-.4-.07-.73-.07-1.06,0-3.28,0-6.56,0-9.83A2.3,2.3,0,0,1,43.84,82Q60,65.77,76.19,49.55c.18-.18.38-.35.77-.69M78.25,46l-2.15,1.9-.32.28c-.22.19-.36.32-.5.46C64.66,59.27,53.69,70.28,42.92,81.12a3.7,3.7,0,0,0-1,2.4c0,2.65,0,5.34,0,7.94v1.91c0,.25,0,.51,0,.79q0,.16,0,.36l.08,1.2h2.74a9.15,9.15,0,0,0,1.1,0,3.55,3.55,0,0,0,2.08-.9c9.12-9.11,18.72-18.74,29.36-29.44a3,3,0,0,0,.87-2c0-3.79,0-7.55,0-11.52V46Z" transform="translate(-0.91)"/><path class="cls-1" d="M65.92,26.72h5.63L43.29,55.07a1.54,1.54,0,0,1-.07-.41c0-3.85,0-7.71,0-11.56a1.9,1.9,0,0,1,.49-1.2Q51,34.55,58.32,27.26a1.78,1.78,0,0,1,1.07-.52c2.17,0,4.35,0,6.53,0m0-1.29c-2.19,0-4.36,0-6.54,0a3,3,0,0,0-2,.9c-5.14,5.12-9.92,9.91-14.6,14.64a3.15,3.15,0,0,0-.86,2.1c0,3.09,0,6.23,0,9.27v2.3a3.25,3.25,0,0,0,.08.63l.44,2.43L44.2,56,58.64,41.5,72.46,27.63l2.2-2.2H65.92Z" transform="translate(-0.91)"/><path class="cls-1" d="M58.21,1.29h.38a58.83,58.83,0,0,1,6.09.25c5.72.75,11,6,12,11.65a4.57,4.57,0,0,1,0,.75H52.9A8.47,8.47,0,0,1,60,9.74V5.54a14.89,14.89,0,0,0-5.42,1.29,12.07,12.07,0,0,0-5.7,5.7c0,.08-.09.15-.13.22A1.89,1.89,0,0,1,47.41,14a2.5,2.5,0,0,1-.4,0H46.7c-.41,0-.83,0-1.25,0-.66,0-1.33,0-2,0a13.62,13.62,0,0,1,3.52-7.64A14.55,14.55,0,0,1,58.21,1.29m0-1.29A15.79,15.79,0,0,0,46,5.51a14.78,14.78,0,0,0-3.84,8.34L42,15.3h1.46l1.08,0h1c.45,0,.81,0,1.14,0a2.82,2.82,0,0,0,.42,0,3.39,3.39,0,0,0,.64-.06,3.16,3.16,0,0,0,2.25-1.91c.06-.1.11-.18.15-.26A10.74,10.74,0,0,1,55.14,8a13.31,13.31,0,0,1,3.58-1V8.59a9.5,9.5,0,0,0-6.92,4.69l-1.18,2H78V14c0-.08,0-.15,0-.22a2.89,2.89,0,0,0,0-.76A16.06,16.06,0,0,0,64.85.27,37.06,37.06,0,0,0,60.17,0L58.62,0Z" transform="translate(-0.91)"/><path class="cls-1" d="M73.21,107.11a1.83,1.83,0,0,1,.33,0c.4,0,.79.05,1.2.05.66,0,1.37,0,2.18,0A32,32,0,0,1,75.7,111a14.38,14.38,0,0,1-10.52,8.52,13.23,13.23,0,0,1-2.53.21c-.84,0-1.69,0-2.53-.07h-.07l-.62,0h-.28c-.65,0-1.3,0-1.95,0a10.88,10.88,0,0,1-2.8-.29c-5.79-1.56-9.41-5.4-10.87-11.24a5.51,5.51,0,0,1-.08-.92H67.29a8.44,8.44,0,0,1-7.11,4.22v4.1h.58a11,11,0,0,0,4.51-1,12.31,12.31,0,0,0,6.12-6,1.3,1.3,0,0,0,.08-.17,1.88,1.88,0,0,1,1.09-1.09,2.22,2.22,0,0,1,.65-.09m3.71,0h0m-3.72-1.33a3.66,3.66,0,0,0-1,.13,3.19,3.19,0,0,0-1.9,1.77l0,.07v0l0,.06,0,0v0a11.07,11.07,0,0,1-5.48,5.37,9.93,9.93,0,0,1-3.26.89v-1.65a9.52,9.52,0,0,0,6.93-4.7l1.18-2H42.06l.11,1.39c0,.12,0,.22,0,.31a3.42,3.42,0,0,0,.11.85c1.59,6.38,5.56,10.48,11.78,12.15a11.79,11.79,0,0,0,3.13.34h1l.95,0h1l.62,0c.62,0,1.27,0,1.91,0a13.49,13.49,0,0,0,2.79-.24,15.72,15.72,0,0,0,11.43-9.24,18.41,18.41,0,0,0,.93-2.74c.11-.41.22-.83.36-1.25l.51-1.68H76.92l-1.23,0h-1c-.42,0-.76,0-1.07,0a3.62,3.62,0,0,0-.46,0Z" transform="translate(-0.91)"/><path class="cls-1" d="M76.89,70.37A5.08,5.08,0,0,1,77,71c0,3.71,0,7.41,0,11.12a2.37,2.37,0,0,1-.64,1.48q-5,5.12-10.11,10.16A1.87,1.87,0,0,1,65,94.4l-5.8,0H53.15a.31.31,0,0,1-.18-.06l23.92-24m.93-2.74L76,69.46,59.72,85.76l-7.66,7.69L51,94.53l1.24.89a1.67,1.67,0,0,0,.93.29h6.09c1.94,0,3.87,0,5.81,0a3.22,3.22,0,0,0,2-1c4.12-4.09,7.24-7.23,10.13-10.18a3.64,3.64,0,0,0,1-2.37c0-3,0-6.07,0-9V71a5.46,5.46,0,0,0-.07-.74v-.06l-.35-2.6Z" transform="translate(-0.91)"/><path class="cls-1" d="M81.08,18.31v4.1h-42v-4.1h42M82.37,17H37.8V23.7H82.37V17Z" transform="translate(-0.91)"/><path class="cls-1" d="M81.09,98.79v4.1h-42v-4.1h42m1.29-1.3H37.79v6.69H82.38V97.49Z" transform="translate(-0.91)"/><path class="cls-1" d="M52.41,26.78h0m0,0-9.08,9.1v-9.1h9.08m3.12-1.29H42V39l2.2-2.2c2-2,4-4,6-6l3.09-3.09,2.2-2.2Zm-3.11,0Zm0,2.58h0Z" transform="translate(-0.91)"/><path class="cls-1" d="M76.9,89.42v4.94H72c1.62-1.64,3.28-3.3,4.91-4.94m1.29-3.13L76,88.51,73.5,91l-2.43,2.45-2.19,2.2h9.31V86.29Z" transform="translate(-0.91)"/><g id="text"><path class="cls-2" d="M35.68,70.23a16.52,16.52,0,0,1-7.7-1.8c-6.45-3.28-10.79-10.81-10.79-18.71S21.58,34.27,28.09,31a16.38,16.38,0,0,1,7.61-1.77H36A16.7,16.7,0,0,1,48,34.4,22.08,22.08,0,0,1,48,65a16.7,16.7,0,0,1-12,5.19Zm0-33.29a8,8,0,0,0-4.19,1.13c-4.06,2.41-5.89,7.59-5.91,11.65,0,5.11,2.43,9.74,6.27,11.8a8,8,0,0,0,3.82,1h0a9.32,9.32,0,0,0,7.17-3.69,14.51,14.51,0,0,0,3.08-9.09c0-5.09-2.46-9.72-6.32-11.8A8.05,8.05,0,0,0,35.63,36.94Z" transform="translate(-0.91)"/><path d="M36,30.07c10.28,0,17.47,10,17.37,19.65.1,9.67-7.09,19.65-17.36,19.65H35.7a15.5,15.5,0,0,1-7.32-1.71c-6.56-3.33-10.33-10.73-10.33-17.94s3.87-14.66,10.43-18a15.52,15.52,0,0,1,7.22-1.68H36m-.35,33.29a10.14,10.14,0,0,0,7.85-4,15.32,15.32,0,0,0,3.26-9.62c0-5-2.35-10.17-6.77-12.56a9,9,0,0,0-4.33-1.08A8.85,8.85,0,0,0,31,37.34c-4.17,2.48-6.29,7.7-6.32,12.38,0,5,2.28,10.17,6.72,12.55a8.74,8.74,0,0,0,4.23,1.09m.36-35v0h-.31a17.28,17.28,0,0,0-8,1.87c-6.78,3.42-11.35,11.26-11.36,19.5s4.43,16,11.27,19.48a17.31,17.31,0,0,0,8.1,1.89H36a17.53,17.53,0,0,0,12.65-5.45,22.94,22.94,0,0,0,0-31.85A17.57,17.57,0,0,0,36,28.34Zm-.36,33.3a7.1,7.1,0,0,1-3.41-.88c-3.57-1.91-5.85-6.24-5.82-11,0-3.82,1.72-8.68,5.48-10.91a7.47,7.47,0,0,1,7.25-.16c3.6,2,5.9,6.28,5.89,11.05a13.7,13.7,0,0,1-2.88,8.55,8.51,8.51,0,0,1-6.51,3.38Z" transform="translate(-0.91)"/><polygon class="cls-2" points="54.83 70.13 54.83 29.31 63.17 29.31 63.17 62.39 74.49 62.39 74.49 70.13 54.83 70.13"/><path d="M63.22,30.17V63.25H74.55v6H56.6V30.17h6.62m1.72-1.72H54.88V71H76.27V61.53H64.94V28.45Z" transform="translate(-0.91)"/><path class="cls-2" d="M77.2,70.13V29.31h7.59A15.89,15.89,0,0,1,97.2,55.14a8,8,0,0,1,2.74,9.91,8.84,8.84,0,0,1-4.79,4.41,9.19,9.19,0,0,1-3.46.67Zm14.49-7.74a.63.63,0,0,0,.47-.2.54.54,0,0,0,.17-.41.67.67,0,0,0-.6-.67h-6.2v1.28Zm-6.16-9.07a7.32,7.32,0,0,0,4.39-2.18,8.51,8.51,0,0,0,0-11.87,7.31,7.31,0,0,0-4.39-2.18Z" transform="translate(-0.91)"/><path d="M84.79,30.17A15,15,0,0,1,95.9,55.33a7.22,7.22,0,0,1,3.26,9.35,8,8,0,0,1-4.34,4,8.23,8.23,0,0,1-3.13.6H78.06V30.17h6.73m0,24.06c4.77,0,8.49-4.35,8.43-9s-3.66-9-8.43-9h-.09v18h.09m-.09,9h7a1.49,1.49,0,0,0,1.48-1.5,1.54,1.54,0,0,0-1.46-1.51H84.67v3m.12-34.8H76.33V71H91.69a10.05,10.05,0,0,0,3.78-.73,9.67,9.67,0,0,0,5.25-4.85A8.76,8.76,0,0,0,98.4,55,16.76,16.76,0,0,0,84.79,28.45Zm1.6,23.83V38.13a6.62,6.62,0,0,1,2.91,1.75,7.63,7.63,0,0,1,0,10.66,6.6,6.6,0,0,1-2.91,1.74Z" transform="translate(-0.91)"/><rect x="16.71" y="72.87" width="85.84" height="18.51"/><path class="cls-1" d="M103,73.3V90.94h-85V73.3h85m.86-.86H17.19V91.8H103.9V72.44Z" transform="translate(-0.91)"/><path class="cls-2" d="M22.47,81.76c0-3.76,3.5-6.91,7.17-5.15,3.93,2,3.93,8.26,0,10.3C26,88.67,22.46,85.55,22.47,81.76Zm1.9,0c-.08,2.32,2,4.82,4.39,3.61,2.58-1.4,2.58-5.81,0-7.21C26.3,76.94,24.34,79.46,24.37,81.76Z" transform="translate(-0.91)"/><path class="cls-2" d="M35.44,77.3v6.62h2.38V77.3h1.9V87.37h-1.9V85.65H35.44v1.72h-1.9V77.3Z" transform="translate(-0.91)"/><path class="cls-2" d="M46.37,77.3v8.35h2.68v1.72H44.47V77.3Z" transform="translate(-0.91)"/><path class="cls-2" d="M53.15,77.3a3,3,0,0,1,3.09,2.92v7.15h-1.9V85.65H52v1.72H50.06V80.22A3,3,0,0,1,53.15,77.3Zm1.19,6.62v-3.7A1.17,1.17,0,0,0,53.15,79,1.18,1.18,0,0,0,52,80.22v3.7Z" transform="translate(-0.91)"/><path class="cls-2" d="M61,77.3c.95,0,2.54-.13,3.4.3a3.76,3.76,0,0,1,1.35,5.9,2.09,2.09,0,0,1-.51,3.7,2.25,2.25,0,0,1-.9.17H61Zm1.9,5.76a2,2,0,0,0,0-4Zm0,2.59h1.44a.43.43,0,0,0,.43-.43.45.45,0,0,0-.43-.44H62.89Z" transform="translate(-0.91)"/><path class="cls-2" d="M70.62,77.3a3,3,0,0,1,3.09,2.92v7.15h-1.9V85.65H69.42v1.72h-1.9V80.22A3,3,0,0,1,70.62,77.3Zm1.19,6.62v-3.7a1.2,1.2,0,0,0-2.39,0v3.7Z" transform="translate(-0.91)"/><path class="cls-2" d="M74.72,77.3c1,0,2.54-.13,3.39.3A3.75,3.75,0,0,1,79,84l1.44,3.38h-1.9l-1.14-2.66a3.54,3.54,0,0,1-.73.07v2.59h-1.9Zm1.9,5.76a2,2,0,0,0,0-4Z" transform="translate(-0.91)"/><path class="cls-2" d="M81.25,77.3c1,0,2.54-.13,3.4.3A3.76,3.76,0,0,1,86,83.5a2.09,2.09,0,0,1-.51,3.7,2.29,2.29,0,0,1-.9.17H81.25Zm1.9,5.76a2,2,0,0,0,0-4Zm0,2.59h1.44a.43.43,0,0,0,.43-.43.45.45,0,0,0-.43-.44H83.15Z" transform="translate(-0.91)"/><path class="cls-2" d="M92.36,77.3V79H89.68v4h2.39v1.72H89.68v.87h2.68v1.72H87.78V77.3Z" transform="translate(-0.91)"/><path class="cls-2" d="M97.11,76.15h2.18l-.4,8.23H97.51Zm1.09,9a1.09,1.09,0,0,1,0,2.18A1.09,1.09,0,0,1,98.2,85.19Z" transform="translate(-0.91)"/></g></g></g></svg>